<svg xmlns="http://www.w3.org/2000/svg" width="200" height="56" viewBox="0 0 200 56" fill="none">
<path d="M1.39906 36.0756C1.42867 36.0756 1.47308 36.0904 1.5323 36.12C1.59152 36.1496 1.67295 36.1718 1.77658 36.1866C1.88022 36.2014 1.96905 36.2088 2.04307 36.2088C2.23553 36.2088 2.41319 36.1126 2.57604 35.9202C2.7389 35.7277 2.85734 35.513 2.93136 35.2761C3.07941 34.8764 3.33109 33.7438 3.68641 31.8784C4.04172 30.013 4.38224 28.2364 4.70794 26.5487C5.03365 24.8609 5.1965 24.0096 5.1965 23.9948V23.9282H4.15276C3.45693 23.9282 3.08681 23.9134 3.0424 23.8838C2.98318 23.8394 2.95357 23.7654 2.95357 23.6617L3.10902 23.0399C3.13863 22.9659 3.19785 22.9289 3.28668 22.9289C3.37551 22.9289 3.72342 22.9215 4.33042 22.9067C5.04105 22.9067 5.39637 22.8993 5.39637 22.8845C5.39637 22.8549 5.46299 22.4847 5.59623 21.7741C5.72948 21.0635 5.81831 20.6341 5.86272 20.4861C6.4105 18.0433 7.49126 16.8219 9.10498 16.8219C9.65276 16.8515 10.1043 17.0144 10.4596 17.3105C10.8149 17.6066 10.9926 17.9989 10.9926 18.4874C10.9926 19.0204 10.8372 19.4053 10.5263 19.6422C10.2153 19.8791 9.90445 20.0049 9.59354 20.0197C8.94213 20.0197 8.61642 19.7088 8.61642 19.087C8.61642 18.8057 8.69785 18.5615 8.8607 18.3542C9.02356 18.1469 9.20122 17.9915 9.39368 17.8878L9.59354 17.7768C9.35667 17.688 9.13459 17.6436 8.92733 17.6436C8.74967 17.6436 8.57941 17.7176 8.41656 17.8656C8.25371 18.0137 8.14267 18.221 8.08345 18.4874C7.97982 18.9168 7.86138 19.4942 7.72813 20.2196C7.59489 20.945 7.47645 21.5594 7.37282 22.0628C7.26918 22.5662 7.21737 22.8327 7.21737 22.8623C7.21737 22.8919 7.6245 22.9067 8.43877 22.9067C9.10498 22.9067 9.48991 22.9141 9.59354 22.9289C9.69718 22.9437 9.77861 22.9881 9.83782 23.0621C9.85263 23.1214 9.83782 23.2472 9.79341 23.4397C9.749 23.6321 9.71198 23.7506 9.68237 23.795C9.65276 23.869 9.58614 23.906 9.48251 23.906C9.37887 23.906 8.97914 23.9134 8.28331 23.9282H7.03971L6.52894 26.6375C5.81831 30.3091 5.32234 32.6039 5.04105 33.5218C4.64132 34.7802 4.12315 35.7129 3.48654 36.3199C2.93876 36.7936 2.39839 37.0305 1.86541 37.0305C1.39166 37.0305 0.962315 36.8899 0.577389 36.6086C0.192463 36.3273 0 35.9276 0 35.4094C0 34.8616 0.155451 34.4619 0.466353 34.2102C0.777255 33.9585 1.08816 33.8327 1.39906 33.8327C2.05047 33.8327 2.37618 34.1436 2.37618 34.7654C2.37618 35.0467 2.29475 35.2909 2.1319 35.4982C1.96905 35.7055 1.79139 35.8609 1.59892 35.9646L1.39906 36.0756Z" fill="black"/>
<path d="M13.0801 26.9261C13.0801 25.9046 13.1541 24.9349 13.3022 24.017C13.4502 23.0991 13.6205 22.307 13.8129 21.6408C14.0054 20.9746 14.2793 20.3232 14.6346 19.6866C14.9899 19.05 15.2712 18.554 15.4785 18.1987C15.6857 17.8434 15.9966 17.4584 16.4112 17.0439C16.8257 16.6294 17.07 16.3777 17.144 16.2889C17.218 16.2 17.4031 16.0446 17.6992 15.8225H17.9879H18.0767C18.284 15.8225 18.3876 15.8891 18.3876 16.0224C18.3876 16.0668 18.2618 16.2222 18.0101 16.4887C17.7584 16.7552 17.4549 17.1475 17.0996 17.6657C16.7443 18.1839 16.3816 18.8205 16.0114 19.5755C15.6413 20.3306 15.3304 21.3521 15.0787 22.6401C14.8271 23.9282 14.7012 25.3568 14.7012 26.9261C14.7012 28.4955 14.8271 29.9167 15.0787 31.1899C15.3304 32.4632 15.6339 33.4921 15.9892 34.2768C16.3446 35.0614 16.7073 35.698 17.0774 36.1866C17.4475 36.6751 17.7584 37.0675 18.0101 37.3636C18.2618 37.6597 18.3876 37.8151 18.3876 37.8299C18.3876 37.9632 18.2766 38.0298 18.0545 38.0298H17.9879H17.6992L17.0774 37.4968C15.6857 36.2384 14.6716 34.6691 14.035 32.7889C13.3984 30.9087 13.0801 28.9544 13.0801 26.9261Z" fill="black"/>
<path d="M20.786 26.06C20.8897 25.4382 21.2894 24.7201 21.9852 23.9059C22.681 23.0916 23.5397 22.6771 24.5613 22.6623C25.0794 22.6623 25.5532 22.7955 25.9825 23.062C26.4119 23.3285 26.7302 23.6616 26.9374 24.0613C27.5592 23.1286 28.3069 22.6623 29.1804 22.6623C29.7281 22.6623 30.2019 22.8251 30.6016 23.1508C31.0014 23.4765 31.2086 23.9133 31.2234 24.4611C31.2234 24.8904 31.1198 25.2383 30.9125 25.5048C30.7053 25.7713 30.5054 25.9341 30.3129 25.9934C30.1205 26.0526 29.9502 26.0822 29.8022 26.0822C29.5209 26.0822 29.2914 26.0008 29.1137 25.8379C28.9361 25.6751 28.8473 25.4604 28.8473 25.1939C28.8473 24.5129 29.2174 24.0465 29.9576 23.7948C29.7948 23.6024 29.4987 23.5061 29.0693 23.5061C28.8769 23.5061 28.7362 23.521 28.6474 23.5506C28.0848 23.7874 27.6703 24.276 27.4038 25.0162C26.5155 28.2881 26.0713 30.1979 26.0713 30.7457C26.0713 31.1603 26.1898 31.4564 26.4267 31.634C26.6635 31.8117 26.9226 31.9005 27.2039 31.9005C27.7517 31.9005 28.2921 31.6562 28.8251 31.1677C29.358 30.6791 29.7207 30.0795 29.9132 29.3689C29.9576 29.2208 30.002 29.1394 30.0465 29.1246C30.0909 29.1098 30.2093 29.095 30.4018 29.0802H30.4906C30.7127 29.0802 30.8237 29.1394 30.8237 29.2578C30.8237 29.2726 30.8089 29.3541 30.7793 29.5021C30.5424 30.346 30.0835 31.0936 29.4024 31.745C28.7214 32.3965 27.9294 32.7222 27.0263 32.7222C25.9899 32.7222 25.2053 32.2558 24.6723 31.3231C24.0653 32.241 23.3695 32.7 22.5848 32.7H22.4516C21.7261 32.7 21.208 32.5075 20.8971 32.1226C20.5862 31.7376 20.4233 31.3305 20.4085 30.9012C20.4085 30.4274 20.5491 30.0425 20.8304 29.7464C21.1117 29.4503 21.4448 29.3022 21.8298 29.3022C22.4664 29.3022 22.7847 29.6131 22.7847 30.235C22.7847 30.531 22.6958 30.7901 22.5182 31.0122C22.3405 31.2343 22.1703 31.3823 22.0074 31.4564C21.8446 31.5304 21.7483 31.5674 21.7187 31.5674L21.6521 31.5896C21.6521 31.6044 21.6965 31.634 21.7853 31.6784C21.8742 31.7228 21.9926 31.7747 22.1407 31.8339C22.2887 31.8931 22.4294 31.9153 22.5626 31.9005C23.0956 31.9005 23.5545 31.5674 23.9395 30.9012C24.0727 30.6643 24.2429 30.1609 24.4502 29.3911C24.6575 28.6212 24.8648 27.8218 25.072 26.9927C25.2793 26.1636 25.3977 25.6751 25.4273 25.527C25.5014 25.1273 25.5384 24.8386 25.5384 24.6609C25.5384 24.2464 25.4273 23.9503 25.2053 23.7726C24.9832 23.595 24.7315 23.5061 24.4502 23.5061C23.858 23.5061 23.3028 23.743 22.7847 24.2168C22.2665 24.6905 21.9038 25.2975 21.6965 26.0378C21.6669 26.171 21.6299 26.245 21.5855 26.2599C21.5411 26.2747 21.4226 26.2895 21.2302 26.3043H20.9193C20.8304 26.2154 20.786 26.134 20.786 26.06Z" fill="black"/>
<path d="M33.6662 15.8447L33.7551 15.8225C33.8291 15.8225 33.9031 15.8225 33.9771 15.8225H34.2436L34.8654 16.3555C36.2571 17.6139 37.2712 19.1832 37.9078 21.0634C38.5444 22.9436 38.8627 24.8979 38.8627 26.9261C38.8627 27.9329 38.7887 28.9026 38.6407 29.8353C38.4926 30.768 38.3224 31.5601 38.1299 32.2115C37.9374 32.8629 37.6635 33.5143 37.3082 34.1657C36.9529 34.8171 36.6716 35.3131 36.4644 35.6536C36.2571 35.9941 35.9536 36.3716 35.5539 36.7862C35.1541 37.2007 34.9172 37.445 34.8432 37.519C34.7692 37.593 34.5989 37.7337 34.3325 37.941C34.288 37.9854 34.2584 38.015 34.2436 38.0298H33.9771C33.8587 38.0298 33.7773 38.0298 33.7329 38.0298C33.6884 38.0298 33.6514 38.0076 33.6218 37.9632C33.5922 37.9187 33.57 37.8521 33.5552 37.7633C33.57 37.7485 33.6514 37.6523 33.7995 37.4746C36.0942 35.091 37.2416 31.5749 37.2416 26.9261C37.2416 22.2774 36.0942 18.7613 33.7995 16.3777C33.6514 16.2 33.57 16.1038 33.5552 16.089C33.5552 15.9706 33.5922 15.8891 33.6662 15.8447Z" fill="black"/>
<path d="M48.3852 24.7721C48.3852 24.5796 48.4889 24.4315 48.6961 24.3279H62.8422C63.0642 24.4464 63.1753 24.5944 63.1753 24.7721C63.1753 24.9349 63.0716 25.0756 62.8644 25.194L55.8025 25.2162H48.7405C48.5037 25.1422 48.3852 24.9941 48.3852 24.7721Z" fill="black"/>
<path d="M48.3852 29.0803C48.3852 28.8582 48.5037 28.7101 48.7405 28.6361H62.8644C63.0716 28.7842 63.1753 28.9322 63.1753 29.0803C63.1753 29.2727 63.0642 29.4208 62.8422 29.5244H48.6961C48.4889 29.4208 48.3852 29.2727 48.3852 29.0803Z" fill="black"/>
<path d="M80.6657 11.4254C80.7101 11.3958 85.1886 11.381 94.1011 11.381H107.47L108.758 14.379C109.631 16.4221 110.098 17.5028 110.157 17.6212H109.269L109.113 17.3103C108.802 16.7033 108.388 16.126 107.87 15.5782C107.129 14.8675 106.308 14.2976 105.405 13.8682C104.502 13.4389 103.458 13.1206 102.273 12.9133C101.089 12.706 99.9713 12.5802 98.9201 12.5358C97.869 12.4914 96.5143 12.4618 94.8562 12.447H92.0803H91.3918H84.9073L85.085 12.6912C91.9396 22.0627 95.3817 26.7929 95.4114 26.8817C95.4262 26.9113 95.4262 26.9557 95.4114 27.0149C95.3669 27.0593 93.4127 29.2949 89.5486 33.7215L83.6859 40.3837C83.6859 40.3985 85.2478 40.4059 88.3717 40.4059C89.1415 40.4059 90.1852 40.4059 91.5029 40.4059C92.8205 40.4059 93.768 40.4133 94.3454 40.4281C96.3589 40.4281 97.9874 40.3911 99.231 40.3171C100.475 40.2431 101.711 40.0876 102.94 39.8507C104.168 39.6139 105.212 39.2511 106.071 38.7626C106.93 38.274 107.692 37.63 108.358 36.8305C108.669 36.4456 108.973 35.9126 109.269 35.2316H110.157C110.157 35.2464 110.105 35.4019 110.002 35.698C109.898 35.9941 109.713 36.4752 109.446 37.1414C109.18 37.8077 108.95 38.4295 108.758 39.0069L107.47 42.449L94.1233 42.4712C85.2108 42.4712 80.7323 42.4564 80.6879 42.4268C80.5991 42.3972 80.5547 42.3305 80.5547 42.2269C80.5547 42.1973 80.5695 42.1529 80.5991 42.0937L92.4356 28.5472C92.4356 28.5324 92.1913 28.1993 91.7027 27.5479C91.2142 26.8965 90.4369 25.8305 89.371 24.3501C88.305 22.8696 87.3427 21.5519 86.484 20.3972L80.5769 12.2915L80.5547 11.9584C80.5547 11.6475 80.5917 11.4698 80.6657 11.4254Z" fill="black"/>
<path d="M70.9178 51.2895C70.9282 51.2267 70.9439 51.143 70.9649 51.0383C70.9858 50.9336 71.0486 50.7347 71.1533 50.4417C71.258 50.1486 71.3626 49.9026 71.4673 49.7037C71.572 49.5049 71.7447 49.3112 71.9854 49.1228C72.2262 48.9344 72.4669 48.8454 72.7076 48.8559C73.0845 48.8559 73.3985 48.9501 73.6497 49.1385C73.9009 49.3269 74.0579 49.5049 74.1207 49.6723C74.1835 49.8398 74.2149 49.9497 74.2149 50.0021C74.2149 50.023 74.2201 50.0335 74.2306 50.0335L74.4033 49.8607C75.0418 49.1909 75.7692 48.8559 76.5857 48.8559C77.1509 48.8559 77.6062 48.9972 77.9516 49.2798C78.297 49.5624 78.475 49.9759 78.4854 50.5202C78.4959 51.0645 78.297 51.8861 77.8888 52.9852C77.4806 54.0842 77.2817 54.7489 77.2922 54.9791C77.2922 55.2513 77.3812 55.3873 77.5591 55.3873C77.6219 55.3873 77.669 55.3821 77.7004 55.3716C78.004 55.3193 78.2761 55.1204 78.5168 54.775C78.7576 54.4296 78.9408 54.0109 79.0664 53.519C79.0873 53.4352 79.192 53.3934 79.3804 53.3934C79.5897 53.3934 79.6944 53.4352 79.6944 53.519C79.6944 53.5294 79.6734 53.6079 79.6316 53.7545C79.5478 54.058 79.4327 54.3563 79.2862 54.6494C79.1396 54.9425 78.8989 55.2356 78.5639 55.5286C78.229 55.8217 77.8679 55.963 77.4806 55.9526C76.9887 55.9526 76.6328 55.8113 76.413 55.5286C76.1932 55.246 76.0833 54.953 76.0833 54.6494C76.0833 54.4505 76.2717 53.8225 76.6485 52.7654C77.0253 51.7082 77.2189 50.9127 77.2294 50.3789C77.2294 49.7613 76.9991 49.4525 76.5386 49.4525H76.4601C75.5599 49.4525 74.801 49.9811 74.1835 51.0383L74.0736 51.2267L73.5555 53.3306C73.2101 54.7018 73.0112 55.4397 72.9588 55.5443C72.8228 55.827 72.5977 55.9683 72.2837 55.9683C72.1477 55.9683 72.0378 55.9369 71.954 55.8741C71.8703 55.8113 71.8127 55.7485 71.7813 55.6857C71.7499 55.6228 71.7394 55.5705 71.7499 55.5286C71.7499 55.3926 71.9488 54.5395 72.3465 52.9695C72.7443 51.3994 72.9536 50.5463 72.9745 50.4103C72.985 50.3579 72.9903 50.2376 72.9903 50.0492C72.9903 49.6409 72.8646 49.4368 72.6134 49.4368C72.2157 49.4368 71.886 49.9602 71.6243 51.0069C71.5615 51.2162 71.5301 51.3261 71.5301 51.3366C71.5092 51.3994 71.4097 51.4308 71.2318 51.4308H71.012C70.9492 51.368 70.9178 51.3209 70.9178 51.2895Z" fill="black"/>
<path d="M80.8876 50.3474C80.8876 50.2113 80.9609 50.1066 81.1074 50.0333H91.1087C91.2657 50.1171 91.3442 50.2218 91.3442 50.3474C91.3442 50.4625 91.2709 50.5619 91.1244 50.6457L86.1316 50.6614H81.1388C80.9714 50.609 80.8876 50.5044 80.8876 50.3474Z" fill="black"/>
<path d="M80.8876 53.3933C80.8876 53.2363 80.9714 53.1316 81.1388 53.0793H91.1244C91.2709 53.1839 91.3442 53.2886 91.3442 53.3933C91.3442 53.5293 91.2657 53.634 91.1087 53.7073H81.1074C80.9609 53.634 80.8876 53.5293 80.8876 53.3933Z" fill="black"/>
<path d="M93.5423 52.0744C93.5423 52.0744 93.5423 52.0064 93.5423 51.8703C93.5423 51.7342 93.6155 51.6296 93.7621 51.5563H102.884C103.041 51.64 103.12 51.7447 103.12 51.8703C103.12 51.9959 103.041 52.1006 102.884 52.1843H93.7621C93.6155 52.1111 93.5423 52.0064 93.5423 51.8703V52.0744Z" fill="black"/>
<path d="M105.302 52.3885C105.302 51.4674 105.595 50.651 106.181 49.9393C106.767 49.2275 107.516 48.8664 108.426 48.8559C109.347 48.8559 110.211 49.1752 111.017 49.8136C111.415 50.1381 111.802 50.5463 112.179 51.0383L112.399 51.3366L112.509 51.1796C113.597 49.6305 114.816 48.8559 116.167 48.8559C117.067 48.8559 117.805 49.2118 118.381 49.9236C118.956 50.6353 119.249 51.4727 119.26 52.4356C119.26 53.3358 118.972 54.147 118.396 54.8692C117.821 55.5914 117.056 55.9578 116.104 55.9683C115.204 55.9683 114.351 55.649 113.545 55.0105C113.147 54.6861 112.76 54.2778 112.383 53.7859L112.163 53.4876L112.053 53.6446C110.965 55.1937 109.745 55.9683 108.395 55.9683C107.495 55.9683 106.757 55.6124 106.181 54.9006C105.606 54.1889 105.312 53.3515 105.302 52.3885Z" fill="black"/>
<path d="M118.679 52.3885C118.679 51.6768 118.48 51.0278 118.082 50.4417C117.684 49.8555 117.119 49.5624 116.387 49.5624C116.167 49.5624 115.952 49.5886 115.743 49.6409C115.533 49.6933 115.335 49.7665 115.146 49.8607C114.958 49.955 114.78 50.0544 114.612 50.1591C114.445 50.2637 114.293 50.3893 114.157 50.5359C114.021 50.6824 113.89 50.8132 113.765 50.9284C113.639 51.0435 113.534 51.1744 113.451 51.3209C113.367 51.4674 113.288 51.5826 113.215 51.6663C113.142 51.75 113.084 51.839 113.042 51.9332L112.964 52.0588L113.451 52.6868C113.775 53.1055 114.026 53.4195 114.204 53.6289C114.382 53.8382 114.602 54.0685 114.864 54.3197C115.125 54.5709 115.387 54.7436 115.649 54.8378C115.91 54.932 116.177 54.9844 116.449 54.9948C117.098 54.9948 117.632 54.7384 118.051 54.2255C118.469 53.7126 118.679 53.1003 118.679 52.3885Z" fill="black"/>
<path d="M105.883 52.4356C105.883 53.1579 106.087 53.8121 106.495 54.3982C106.903 54.9844 107.469 55.2774 108.191 55.2774C109.426 55.2774 110.562 54.4401 111.598 52.7654L111.111 52.1373C110.473 51.3104 109.996 50.7661 109.682 50.5045C109.17 50.0544 108.641 49.8293 108.097 49.8293C107.448 49.8293 106.919 50.0858 106.511 50.5987C106.103 51.1116 105.893 51.7239 105.883 52.4356Z" fill="black"/>
<path d="M88.3802 3.53258C88.3802 2.61148 88.6733 1.79505 89.2594 1.0833C89.8456 0.371537 90.594 0.0104248 91.5046 -4.22709e-05C92.4257 -4.22709e-05 93.2892 0.319202 94.0952 0.957691C94.4929 1.28217 94.8802 1.69038 95.257 2.18233L95.4769 2.48064L95.5868 2.32364C96.6753 0.774518 97.8947 -4.22709e-05 99.245 -4.22709e-05C100.145 -4.22709e-05 100.883 0.355837 101.459 1.06759C102.034 1.77935 102.328 2.61672 102.338 3.57968C102.338 4.47985 102.05 5.29104 101.474 6.01327C100.899 6.73549 100.135 7.10184 99.1822 7.1123C98.282 7.1123 97.429 6.79306 96.623 6.15457C96.2252 5.83009 95.838 5.42188 95.4611 4.92993L95.2413 4.63162L95.1314 4.78862C94.0429 6.33774 92.8235 7.1123 91.4732 7.1123C90.573 7.1123 89.8351 6.75643 89.2594 6.04467C88.6837 5.33291 88.3907 4.49555 88.3802 3.53258Z" fill="black"/>
<path d="M101.757 3.53258C101.757 2.82082 101.558 2.17187 101.16 1.58571C100.763 0.999559 100.197 0.706482 99.4648 0.706482C99.245 0.706482 99.0304 0.73265 98.8211 0.784985C98.6117 0.83732 98.4129 0.910589 98.2244 1.00479C98.036 1.099 97.8581 1.19843 97.6906 1.3031C97.5232 1.40777 97.3714 1.53338 97.2353 1.67992C97.0992 1.82645 96.9684 1.95729 96.8428 2.07243C96.7172 2.18757 96.6125 2.3184 96.5288 2.46494C96.4451 2.61148 96.3665 2.72662 96.2933 2.81036C96.22 2.89409 96.1624 2.98306 96.1206 3.07726L96.0421 3.20287L96.5288 3.83089C96.8533 4.24957 97.1045 4.56358 97.2824 4.77292C97.4604 4.98226 97.6802 5.21254 97.9418 5.46375C98.2035 5.71496 98.4652 5.88766 98.7269 5.98187C98.9885 6.07607 99.2554 6.1284 99.5276 6.13887C100.177 6.13887 100.71 5.88243 101.129 5.36954C101.548 4.85666 101.757 4.24434 101.757 3.53258Z" fill="black"/>
<path d="M88.9611 3.57968C88.9611 4.30191 89.1652 4.9561 89.5734 5.54225C89.9817 6.1284 90.5469 6.42148 91.2691 6.42148C92.5042 6.42148 93.6399 5.58412 94.6761 3.90939L94.1894 3.28137C93.5509 2.45448 93.0747 1.91019 92.7607 1.64851C92.2478 1.19843 91.7192 0.973392 91.1749 0.973392C90.5259 0.973392 89.9974 1.22983 89.5891 1.74272C89.1809 2.2556 88.9716 2.86792 88.9611 3.57968Z" fill="black"/>
<path d="M124.603 28.9469C124.603 27.3331 125.239 25.8823 126.513 24.5942C127.786 23.3062 129.163 22.6622 130.643 22.6622C131.472 22.6622 132.124 22.8399 132.597 23.1952C133.071 23.5505 133.315 24.0169 133.33 24.5942C133.33 25.0236 133.19 25.3863 132.908 25.6824C132.627 25.9785 132.272 26.1339 131.842 26.1488C131.561 26.1488 131.339 26.0747 131.176 25.9267C131.013 25.7786 130.932 25.5566 130.932 25.2605C130.932 24.9644 131.013 24.7127 131.176 24.5054C131.339 24.2981 131.502 24.1427 131.665 24.0391C131.828 23.9354 131.931 23.891 131.976 23.9058H131.998C131.998 23.8762 131.953 23.8318 131.865 23.7726C131.776 23.7134 131.62 23.6541 131.398 23.5949C131.176 23.5357 130.924 23.5061 130.643 23.5061C130.199 23.5061 129.777 23.6097 129.377 23.817C129.066 23.9502 128.748 24.1797 128.422 24.5054C127.771 25.1568 127.297 26.0747 127.001 27.2591C126.705 28.4435 126.55 29.3022 126.535 29.8352C126.535 30.5162 126.727 31.0269 127.112 31.3675C127.438 31.7228 127.867 31.9004 128.4 31.9004H128.489C130.147 31.9004 131.517 31.2712 132.597 30.0128C132.731 29.8648 132.82 29.7907 132.864 29.7907C132.923 29.7907 133.019 29.8574 133.153 29.9906C133.286 30.1239 133.36 30.2275 133.375 30.3015C133.389 30.3755 133.323 30.4866 133.175 30.6346C133.027 30.7827 132.812 30.9899 132.531 31.2564C132.25 31.5229 131.916 31.745 131.531 31.9226C131.147 32.1003 130.673 32.2854 130.11 32.4778C129.548 32.6703 128.955 32.7517 128.334 32.7221C127.223 32.7221 126.328 32.3668 125.647 31.6562C124.966 30.9455 124.618 30.0424 124.603 28.9469Z" fill="black"/>
<path d="M133.793 31.3029C133.804 31.2401 133.819 31.1564 133.84 31.0517C133.861 30.947 133.924 30.7482 134.029 30.4551C134.133 30.162 134.238 29.916 134.343 29.7172C134.447 29.5183 134.62 29.3247 134.861 29.1363C135.102 28.9478 135.342 28.8589 135.583 28.8693C135.96 28.8693 136.274 28.9635 136.525 29.152C136.776 29.3404 136.933 29.5183 136.996 29.6858C137.059 29.8532 137.09 29.9631 137.09 30.0155C137.09 30.0364 137.096 30.0469 137.106 30.0469L137.279 29.8742C137.917 29.2043 138.645 28.8693 139.461 28.8693C140.026 28.8693 140.482 29.0106 140.827 29.2933C141.172 29.5759 141.35 29.9893 141.361 30.5336C141.371 31.0779 141.172 31.8995 140.764 32.9986C140.356 34.0976 140.157 34.7623 140.168 34.9926C140.168 35.2647 140.257 35.4008 140.435 35.4008C140.497 35.4008 140.544 35.3955 140.576 35.3851C140.879 35.3327 141.152 35.1339 141.392 34.7884C141.633 34.443 141.816 34.0244 141.942 33.5324C141.963 33.4487 142.067 33.4068 142.256 33.4068C142.465 33.4068 142.57 33.4487 142.57 33.5324C142.57 33.5429 142.549 33.6214 142.507 33.7679C142.423 34.0715 142.308 34.3698 142.162 34.6628C142.015 34.9559 141.774 35.249 141.439 35.5421C141.104 35.8352 140.743 35.9765 140.356 35.966C139.864 35.966 139.508 35.8247 139.288 35.5421C139.069 35.2595 138.959 34.9664 138.959 34.6628C138.959 34.464 139.147 33.8359 139.524 32.7788C139.901 31.7216 140.094 30.9261 140.105 30.3923C140.105 29.7747 139.875 29.466 139.414 29.466H139.336C138.435 29.466 137.677 29.9945 137.059 31.0517L136.949 31.2401L136.431 33.344C136.086 34.7152 135.887 35.4531 135.834 35.5578C135.698 35.8404 135.473 35.9817 135.159 35.9817C135.023 35.9817 134.913 35.9503 134.829 35.8875C134.746 35.8247 134.688 35.7619 134.657 35.6991C134.625 35.6363 134.615 35.5839 134.625 35.5421C134.625 35.406 134.824 34.5529 135.222 32.9829C135.62 31.4128 135.829 30.5598 135.85 30.4237C135.86 30.3714 135.866 30.251 135.866 30.0626C135.866 29.6544 135.74 29.4503 135.489 29.4503C135.091 29.4503 134.761 29.9736 134.5 31.0203C134.437 31.2297 134.406 31.3396 134.406 31.35C134.385 31.4128 134.285 31.4442 134.107 31.4442H133.887C133.825 31.3814 133.793 31.3343 133.793 31.3029Z" fill="black"/>
<path d="M144.86 28.7471C144.86 27.9032 145.001 27.1333 145.282 26.4375C145.564 25.7417 145.926 25.1643 146.37 24.7053C146.815 24.2464 147.311 23.8615 147.858 23.5506C148.406 23.2397 148.924 23.0102 149.413 22.8621C149.901 22.7141 150.368 22.6475 150.812 22.6623H150.878C151.545 22.6623 152.122 22.8251 152.611 23.1508C153.099 23.4765 153.343 23.9577 153.343 24.5943C153.343 25.9267 152.522 26.8002 150.878 27.2148C150.153 27.4072 149.161 27.5109 147.903 27.5257C147.355 27.5257 147.074 27.5405 147.059 27.5701C147.059 27.5997 147.014 27.8588 146.926 28.3473C146.837 28.8359 146.785 29.2652 146.77 29.6354C146.77 30.3312 146.926 30.879 147.236 31.2787C147.547 31.6784 148.014 31.8857 148.636 31.9005C149.257 31.9153 149.946 31.7747 150.701 31.4786C151.456 31.1825 152.137 30.6939 152.744 30.0129C152.877 29.8648 152.966 29.7908 153.01 29.7908C153.07 29.7908 153.166 29.8574 153.299 29.9907C153.432 30.1239 153.506 30.2276 153.521 30.3016C153.536 30.3756 153.469 30.494 153.321 30.6569C153.173 30.8197 152.951 31.0196 152.655 31.2565C152.359 31.4934 152.018 31.7228 151.634 31.9449C151.249 32.167 150.782 32.352 150.234 32.5001C149.687 32.6481 149.124 32.7222 148.547 32.7222C147.377 32.7222 146.474 32.3298 145.837 31.5452C145.201 30.7605 144.875 29.8278 144.86 28.7471Z" fill="black"/>
<path d="M152.278 24.6387C152.189 23.8689 151.685 23.4839 150.767 23.4839C150.279 23.4839 149.827 23.5876 149.413 23.7948C148.998 24.0021 148.665 24.2538 148.413 24.5499C148.162 24.846 147.947 25.1495 147.769 25.4604C147.592 25.7713 147.473 26.0378 147.414 26.2599C147.355 26.4819 147.318 26.6226 147.303 26.6818C147.303 26.6966 147.451 26.704 147.747 26.704C149.42 26.704 150.59 26.5263 151.256 26.171C151.922 25.8157 152.263 25.3049 152.278 24.6387Z" fill="black"/>
<path d="M157.232 13.886C157.232 13.6348 157.331 13.415 157.53 13.2265C157.729 13.0381 157.959 12.9387 158.221 12.9282C158.409 12.9282 158.566 12.991 158.692 13.1166C158.817 13.2422 158.886 13.3993 158.896 13.5877C158.896 13.8284 158.791 14.0482 158.582 14.2471C158.373 14.446 158.142 14.5506 157.891 14.5611C157.734 14.5611 157.588 14.5088 157.452 14.4041C157.315 14.2994 157.242 14.1267 157.232 13.886Z" fill="black"/>
<path d="M154.673 18.8002C154.673 18.7165 154.72 18.5543 154.814 18.3135C154.908 18.0728 155.034 17.8059 155.191 17.5128C155.348 17.2197 155.578 16.9528 155.881 16.7121C156.185 16.4713 156.499 16.3562 156.823 16.3667C157.232 16.3667 157.572 16.487 157.844 16.7278C158.116 16.9685 158.257 17.293 158.268 17.7012C158.268 17.8791 158.195 18.1722 158.048 18.5804C157.902 18.9886 157.692 19.5382 157.42 20.229C157.148 20.9198 156.928 21.5112 156.761 22.0032C156.708 22.2334 156.682 22.4009 156.682 22.5056C156.682 22.7672 156.771 22.8981 156.949 22.8981C157.043 22.8981 157.143 22.8824 157.247 22.851C157.352 22.8196 157.472 22.7463 157.609 22.6312C157.745 22.516 157.886 22.3329 158.032 22.0817C158.179 21.8304 158.31 21.5217 158.425 21.1553C158.456 21.0297 158.483 20.9564 158.503 20.9355C158.524 20.9146 158.613 20.9041 158.77 20.9041C158.98 20.9041 159.084 20.9564 159.084 21.0611C159.084 21.1449 159.037 21.3071 158.943 21.5478C158.849 21.7886 158.718 22.0555 158.551 22.3486C158.383 22.6416 158.148 22.9033 157.844 23.1336C157.54 23.3639 157.216 23.479 156.871 23.479C156.536 23.479 156.227 23.3691 155.944 23.1493C155.662 22.9295 155.515 22.5945 155.505 22.1445C155.505 21.9665 155.531 21.799 155.583 21.642C155.635 21.485 155.861 20.8884 156.258 19.8522C156.656 18.795 156.886 18.1618 156.949 17.9524C157.012 17.7431 157.049 17.539 157.059 17.3401C157.059 17.0889 156.97 16.9633 156.792 16.9633H156.761C156.447 16.9633 156.159 17.136 155.897 17.4814C155.635 17.8268 155.437 18.2664 155.301 18.8002C155.29 18.8107 155.28 18.8264 155.269 18.8473C155.259 18.8683 155.253 18.884 155.253 18.8944C155.253 18.9049 155.243 18.9154 155.222 18.9258C155.201 18.9363 155.185 18.9415 155.175 18.9415C155.164 18.9415 155.144 18.9415 155.112 18.9415C155.081 18.9415 155.039 18.9415 154.987 18.9415H154.767C154.704 18.8787 154.673 18.8316 154.673 18.8002Z" fill="black"/>
<path d="M161.471 16.5706C161.188 16.5706 160.963 16.4764 160.796 16.288C160.628 16.0996 160.545 15.8693 160.545 15.5972C160.545 14.854 160.822 14.2103 161.377 13.666C161.931 13.1217 162.622 12.8496 163.449 12.8496C164.402 12.8496 165.197 13.1427 165.836 13.7288C166.474 14.315 166.799 15.0738 166.809 16.0054C166.809 16.4555 166.704 16.8846 166.495 17.2928C166.286 17.7011 166.034 18.0569 165.741 18.3605C165.448 18.664 165.03 19.0513 164.485 19.5223C164.109 19.8468 163.585 20.3283 162.915 20.9668L161.989 21.846L163.182 21.8617C164.826 21.8617 165.7 21.8355 165.804 21.7832C165.877 21.7623 166.003 21.2965 166.181 20.3859V20.3387H166.809V20.3859C166.799 20.4173 166.731 20.8935 166.605 21.8146C166.479 22.7357 166.401 23.2172 166.369 23.2591V23.3062H160.545V23.0078V22.8194C160.545 22.7462 160.576 22.6677 160.639 22.5839C160.702 22.5002 160.859 22.317 161.11 22.0344C161.413 21.6995 161.675 21.4064 161.895 21.1552C161.989 21.0505 162.167 20.8569 162.429 20.5743C162.69 20.2916 162.868 20.098 162.962 19.9933C163.057 19.8887 163.208 19.716 163.418 19.4752C163.627 19.2345 163.774 19.0565 163.857 18.9414C163.941 18.8263 164.061 18.6693 164.218 18.4704C164.375 18.2715 164.485 18.104 164.548 17.968C164.611 17.8319 164.689 17.6801 164.784 17.5127C164.878 17.3452 164.946 17.1777 164.988 17.0102C165.03 16.8428 165.066 16.6858 165.098 16.5392C165.129 16.3927 165.145 16.22 165.145 16.0211C165.145 15.3617 164.967 14.7912 164.611 14.3097C164.255 13.8283 163.747 13.5875 163.088 13.5875C162.743 13.5875 162.439 13.6765 162.177 13.8544C161.916 14.0324 161.733 14.2051 161.628 14.3725C161.523 14.54 161.471 14.6395 161.471 14.6709C161.471 14.6813 161.497 14.6866 161.549 14.6866C161.738 14.6866 161.931 14.7598 162.13 14.9064C162.329 15.0529 162.429 15.2936 162.429 15.6286C162.429 15.8903 162.345 16.1101 162.177 16.288C162.01 16.4659 161.774 16.5602 161.471 16.5706Z" fill="black"/>
<path d="M169.682 23.479C169.326 23.479 169.148 23.3063 169.148 22.9609V22.7882L169.353 22.3486C170.138 20.6948 170.708 19.266 171.064 18.0623L171.19 17.6855H170.687C170.289 17.6855 170.007 17.7012 169.839 17.7326C169.672 17.764 169.468 17.8634 169.227 18.0309C169.112 18.1042 168.997 18.1984 168.882 18.3135C168.766 18.4287 168.667 18.5386 168.583 18.6432C168.499 18.7479 168.452 18.8107 168.442 18.8316C168.421 18.8421 168.342 18.8473 168.206 18.8473C168.008 18.8473 167.908 18.795 167.908 18.6903C167.908 18.6275 168.008 18.4444 168.206 18.1408C168.405 17.8373 168.693 17.5128 169.07 17.1674C169.447 16.822 169.818 16.6231 170.185 16.5708C170.258 16.5498 171.435 16.5394 173.717 16.5394C175.392 16.5394 176.25 16.5446 176.292 16.5551C176.502 16.6283 176.606 16.7749 176.606 16.9947C176.606 17.3192 176.439 17.539 176.104 17.6541C176.041 17.675 175.68 17.6855 175.02 17.6855H174.016L173.968 17.9524C173.843 18.706 173.78 19.3288 173.78 19.8208C173.78 20.3651 173.827 20.8518 173.921 21.2809C174.016 21.7101 174.115 22.045 174.22 22.2858C174.324 22.5265 174.377 22.673 174.377 22.7254C174.377 22.9033 174.303 23.0708 174.157 23.2278C174.01 23.3848 173.822 23.4633 173.592 23.4633C173.477 23.4633 173.382 23.4476 173.309 23.4162C173.236 23.3848 173.152 23.2592 173.058 23.0394C172.964 22.8196 172.88 22.5056 172.807 22.0974C172.796 22.0032 172.791 21.7729 172.791 21.4065C172.791 20.8936 172.838 20.3441 172.932 19.758C173.026 19.1718 173.121 18.6903 173.215 18.3135C173.309 17.9367 173.361 17.7274 173.372 17.6855H171.833L171.818 17.7483C171.818 17.7797 171.718 18.1932 171.519 18.9886C171.32 19.7841 171.095 20.6267 170.844 21.5164C170.593 22.4061 170.431 22.9138 170.357 23.0394C170.242 23.3325 170.017 23.479 169.682 23.479Z" fill="black"/>
<path d="M181.085 13.9343C181.092 13.8899 181.103 13.8307 181.118 13.7567C181.133 13.6827 181.177 13.5421 181.251 13.3349C181.325 13.1277 181.399 12.9538 181.473 12.8132C181.547 12.6726 181.669 12.5357 181.84 12.4025C182.01 12.2693 182.18 12.2064 182.35 12.2138C182.617 12.2138 182.839 12.2804 183.016 12.4136C183.194 12.5468 183.305 12.6726 183.349 12.791C183.394 12.9094 183.416 12.9871 183.416 13.0241C183.416 13.0389 183.419 13.0463 183.427 13.0463L183.549 12.9242C184 12.4506 184.515 12.2138 185.092 12.2138C185.492 12.2138 185.813 12.3137 186.058 12.5135C186.302 12.7133 186.428 13.0056 186.435 13.3904C186.442 13.7752 186.302 14.3561 186.013 15.1331C185.725 15.9102 185.584 16.3801 185.591 16.5429C185.591 16.7353 185.654 16.8315 185.78 16.8315C185.825 16.8315 185.858 16.8278 185.88 16.8204C186.095 16.7834 186.287 16.6428 186.457 16.3986C186.627 16.1544 186.757 15.8584 186.846 15.5105C186.861 15.4513 186.935 15.4217 187.068 15.4217C187.216 15.4217 187.29 15.4513 187.29 15.5105C187.29 15.5179 187.275 15.5734 187.245 15.677C187.186 15.8917 187.105 16.1026 187.001 16.3098C186.898 16.517 186.727 16.7242 186.491 16.9314C186.254 17.1386 185.998 17.2385 185.725 17.2311C185.377 17.2311 185.125 17.1312 184.97 16.9314C184.814 16.7316 184.737 16.5244 184.737 16.3098C184.737 16.1692 184.87 15.7251 185.136 14.9777C185.403 14.2303 185.54 13.6679 185.547 13.2905C185.547 12.8539 185.384 12.6356 185.059 12.6356H185.003C184.367 12.6356 183.83 13.0093 183.394 13.7567L183.316 13.8899L182.95 15.3773C182.705 16.3468 182.565 16.8685 182.528 16.9425C182.432 17.1423 182.272 17.2422 182.05 17.2422C181.954 17.2422 181.877 17.22 181.817 17.1756C181.758 17.1312 181.717 17.0868 181.695 17.0424C181.673 16.998 181.666 16.961 181.673 16.9314C181.673 16.8352 181.814 16.2321 182.095 15.122C182.376 14.012 182.524 13.4089 182.539 13.3127C182.546 13.2757 182.55 13.1906 182.55 13.0574C182.55 12.7688 182.461 12.6245 182.284 12.6245C182.002 12.6245 181.769 12.9945 181.584 13.7345C181.54 13.8825 181.518 13.9602 181.518 13.9676C181.503 14.012 181.433 14.0342 181.307 14.0342H181.151C181.107 13.9898 181.085 13.9565 181.085 13.9343Z" fill="black"/>
<path d="M183.199 21.7519C183.199 21.7001 182.988 21.6668 182.566 21.652C182.389 21.652 182.274 21.6483 182.222 21.6409C182.17 21.6335 182.144 21.5965 182.144 21.5299C182.144 21.5225 182.152 21.4818 182.167 21.4078C182.211 21.2598 182.244 21.1784 182.267 21.1636C182.289 21.1488 183.007 21.1414 184.42 21.1414C185.826 21.1488 186.577 21.1599 186.673 21.1747C187.147 21.2561 187.543 21.4374 187.861 21.7186C188.179 21.9998 188.342 22.3735 188.35 22.8397C188.35 23.4096 188.105 23.9313 187.617 24.4049C187.106 24.9081 186.448 25.2263 185.641 25.3595C185.589 25.3669 185.201 25.3743 184.476 25.3817H183.421L183.088 26.7026C182.866 27.5611 182.755 28.0162 182.755 28.068C182.755 28.0976 182.759 28.1161 182.766 28.1235C182.773 28.1309 182.799 28.1457 182.844 28.1679C182.888 28.1901 182.951 28.1975 183.032 28.1901C183.114 28.1827 183.236 28.1901 183.399 28.2123H183.743C183.787 28.2789 183.809 28.3196 183.809 28.3344C183.809 28.4528 183.784 28.5638 183.732 28.6674C183.695 28.7044 183.636 28.7229 183.554 28.7229C183.532 28.7229 183.395 28.7192 183.143 28.7118C182.892 28.7044 182.522 28.7007 182.033 28.7007C181.575 28.7007 181.223 28.7007 180.979 28.7007C180.735 28.7007 180.602 28.7044 180.579 28.7118C180.446 28.7118 180.38 28.6748 180.38 28.6008C180.38 28.586 180.391 28.5342 180.413 28.4454C180.442 28.327 180.472 28.2604 180.502 28.2456C180.531 28.2308 180.616 28.2197 180.757 28.2123C180.957 28.2123 181.179 28.2012 181.423 28.179C181.527 28.1568 181.597 28.1124 181.634 28.0458C181.656 28.0162 181.922 26.9876 182.433 24.9599C182.944 22.9323 183.199 21.8629 183.199 21.7519Z" fill="black"/>
<path d="M187.173 22.5733C187.173 22.4771 187.165 22.3994 187.151 22.3402C187.136 22.281 187.103 22.1996 187.051 22.096C186.999 21.9924 186.906 21.911 186.773 21.8518C186.64 21.7926 186.459 21.7334 186.229 21.6742C186.178 21.6668 185.882 21.6594 185.341 21.652C185.216 21.652 185.086 21.652 184.953 21.652C184.82 21.652 184.712 21.6557 184.631 21.6631C184.55 21.6705 184.505 21.6705 184.498 21.6631C184.402 21.6705 184.335 21.7038 184.298 21.763C184.283 21.8074 184.213 22.0923 184.087 22.6177C183.961 23.1432 183.832 23.6538 183.698 24.1496C183.565 24.6454 183.499 24.897 183.499 24.9044C183.499 24.9192 183.798 24.9266 184.398 24.9266H184.531H184.786C185.615 24.9266 186.207 24.7416 186.562 24.3716C186.762 24.1718 186.914 23.8795 187.017 23.4947C187.121 23.1099 187.173 22.8027 187.173 22.5733Z" fill="black"/>
<path d="M189.92 19.8521H178.443V18.91H189.92V19.8521Z" fill="black"/>
<path d="M192.621 18.7688C192.694 18.3292 192.977 17.8216 193.469 17.2459C193.961 16.6702 194.568 16.3771 195.29 16.3667C195.656 16.3667 195.991 16.4609 196.295 16.6493C196.598 16.8377 196.823 17.0732 196.97 17.3558C197.409 16.6964 197.938 16.3667 198.556 16.3667C198.943 16.3667 199.278 16.4818 199.56 16.7121C199.843 16.9423 199.99 17.2511 200 17.6384C200 17.9419 199.927 18.1879 199.78 18.3763C199.634 18.5647 199.492 18.6799 199.356 18.7217C199.22 18.7636 199.1 18.7845 198.995 18.7845C198.796 18.7845 198.634 18.727 198.508 18.6118C198.383 18.4967 198.32 18.3449 198.32 18.1565C198.32 17.675 198.582 17.3453 199.105 17.1674C198.99 17.0313 198.781 16.9633 198.477 16.9633C198.341 16.9633 198.242 16.9737 198.179 16.9947C197.781 17.1622 197.488 17.5076 197.3 18.0309C196.671 20.3441 196.357 21.6944 196.357 22.0817C196.357 22.3747 196.441 22.5841 196.609 22.7097C196.776 22.8353 196.959 22.8981 197.158 22.8981C197.545 22.8981 197.928 22.7254 198.304 22.38C198.681 22.0346 198.938 21.6106 199.074 21.1082C199.105 21.0036 199.136 20.946 199.168 20.9355C199.199 20.925 199.283 20.9146 199.419 20.9041H199.482C199.639 20.9041 199.717 20.946 199.717 21.0297C199.717 21.0402 199.707 21.0978 199.686 21.2024C199.519 21.799 199.194 22.3276 198.713 22.7882C198.231 23.2487 197.671 23.479 197.033 23.479C196.3 23.479 195.745 23.1493 195.368 22.4899C194.939 23.1388 194.447 23.4633 193.892 23.4633H193.798C193.285 23.4633 192.919 23.3272 192.699 23.0551C192.479 22.7829 192.364 22.4951 192.354 22.1916C192.354 21.8566 192.453 21.5845 192.652 21.3751C192.851 21.1658 193.087 21.0611 193.359 21.0611C193.809 21.0611 194.034 21.2809 194.034 21.7205C194.034 21.9299 193.971 22.1131 193.845 22.2701C193.72 22.4271 193.599 22.5317 193.484 22.5841C193.369 22.6364 193.301 22.6626 193.28 22.6626L193.233 22.6783C193.233 22.6887 193.264 22.7097 193.327 22.7411C193.39 22.7725 193.474 22.8091 193.578 22.851C193.683 22.8929 193.783 22.9086 193.877 22.8981C194.254 22.8981 194.578 22.6626 194.85 22.1916C194.944 22.0241 195.065 21.6682 195.211 21.1239C195.358 20.5796 195.504 20.0144 195.651 19.4283C195.797 18.8421 195.881 18.4967 195.902 18.392C195.954 18.1094 195.981 17.9053 195.981 17.7797C195.981 17.4866 195.902 17.2773 195.745 17.1517C195.588 17.0261 195.41 16.9633 195.211 16.9633C194.793 16.9633 194.4 17.1308 194.034 17.4657C193.667 17.8006 193.411 18.2298 193.264 18.7531C193.244 18.8473 193.217 18.8997 193.186 18.9101C193.155 18.9206 193.071 18.9311 192.935 18.9415H192.715C192.652 18.8787 192.621 18.8212 192.621 18.7688Z" fill="black"/>
</svg>